<?xml version="1.0" encoding="UTF-8"?>
<svg version="1.1" xmlns="http://www.w3.org/2000/svg" width="371" height="280">
<path d="M0 0 C2.10083696 1.6896812 2.92529664 2.6601282 3.51171875 5.328125 C4.44649184 20.86613101 5.1455969 36.68747168 2 52 C1.70802734 53.77503906 1.70802734 53.77503906 1.41015625 55.5859375 C-3.12805537 81.63366101 -17.81240089 105.77782546 -39.49902344 121.11206055 C-47.23785891 126.32197672 -55.34677808 130.53230144 -64 134 C-64.66805664 134.26796387 -65.33611328 134.53592773 -66.02441406 134.81201172 C-94.30735553 145.82866287 -125.44418779 148.18347954 -153.796875 136.46484375 C-165.41336696 131.15242365 -175.86334039 124.76484206 -186 117 C-186.95648438 116.26910156 -187.91296875 115.53820312 -188.8984375 114.78515625 C-206.92189402 100.50582752 -206.92189402 100.50582752 -212 92 C-211.67 91.01 -211.34 90.02 -211 89 C-209.7531543 89.01047363 -208.50630859 89.02094727 -207.22167969 89.03173828 C-161.28963312 89.77041535 -161.28963312 89.77041535 -116 83 C-115.67 82.67 -115.34 82.34 -115 82 C-116.32052368 82.17390259 -116.32052368 82.17390259 -117.66772461 82.35131836 C-150.63419727 86.66366142 -150.63419727 86.66366142 -164 87 C-165.76730469 87.05994141 -165.76730469 87.05994141 -167.5703125 87.12109375 C-209.64900815 87.8935968 -209.64900815 87.8935968 -218.7578125 79.3515625 C-220.46987974 76.11047924 -221.59699948 72.7356482 -222.6875 69.25 C-222.91244141 68.55261719 -223.13738281 67.85523438 -223.36914062 67.13671875 C-223.91963366 65.42667656 -224.46076237 63.71362471 -225 62 C-221.31496753 62.59775036 -218.39702995 63.65294195 -215.0625 65.3125 C-190.67663571 76.68158538 -157.97396968 75.73338461 -132 70 C-131.0507666 69.79600586 -130.1015332 69.59201172 -129.12353516 69.38183594 C-96.33313112 62.22245009 -65.24165336 51.09526138 -35.33886719 35.92529297 C-34.28473633 35.39693848 -33.23060547 34.86858398 -32.14453125 34.32421875 C-31.22003174 33.85072998 -30.29553223 33.37724121 -29.34301758 32.8894043 C-27 32 -27 32 -24 33 C-24.89324629 61.33746851 -31.07741113 86.33281652 -51.23046875 107.40625 C-59.11484715 114.79020946 -67.8528509 121.26488271 -77 127 C-52.84856145 118.81034996 -32.58210917 106.57060024 -20.75 83.0625 C-19.45924648 80.39262315 -18.21580868 77.7047442 -17 75 C-16.5875 74.08605469 -16.175 73.17210937 -15.75 72.23046875 C-10.50691094 59.22515018 -8.2120638 43.93544676 -7.82421875 29.95703125 C-7.80037109 29.11076172 -7.77652344 28.26449219 -7.75195312 27.39257812 C-7.70869808 25.66106555 -7.67760504 23.92920972 -7.65820312 22.19726562 C-7.47305294 16.5695612 -6.51761899 13.58154911 -3 9 C-1.93334795 6.51177363 -1.93334795 6.51177363 -1.25 4.125 C-0.88648438 2.95324219 -0.88648438 2.95324219 -0.515625 1.7578125 C-0.34546875 1.17773438 -0.1753125 0.59765625 0 0 Z " fill="#F3841F" transform="translate(289,121)"/>
<path d="M0 0 C9.50404063 -0.77233739 19.6316631 0.79791721 27.1875 7 C29.99290775 9.61364571 31.71731988 12.25132762 32.3359375 16.078125 C32.50970115 25.73938377 28.1312782 31.56997017 21.640625 38.4375 C-2.58740409 61.9487235 -38.89806036 74.72583809 -71 83 C-71.98226562 83.25910156 -72.96453125 83.51820313 -73.9765625 83.78515625 C-104.48988523 91.78041929 -144.96737381 100.72629381 -174.4375 85.1875 C-178.59853227 81.63539928 -180.57368299 78.17421674 -181.625 72.8125 C-179.95133405 62.6031377 -173.96616281 54.38810389 -166 48 C-164.515 47.505 -164.515 47.505 -163 47 C-163.49922575 50.19504481 -164.36642688 52.82727186 -165.6875 55.75 C-167.18801707 59.74635199 -167.28695045 62.78989288 -166.0859375 66.89453125 C-163.31634096 72.2643605 -158.20761705 74.12620829 -152.83203125 76.25390625 C-115.87793828 87.62134964 -68.78869872 73.57491464 -35 58 C-34.26652344 57.66500488 -33.53304687 57.33000977 -32.77734375 56.98486328 C-28.09286191 54.81839827 -23.51949637 52.49176819 -19 50 C-18.33274902 49.63326172 -17.66549805 49.26652344 -16.97802734 48.88867188 C-9.11587195 44.48333048 -2.12143282 39.65142657 4.3125 33.3125 C5.11240356 32.52903198 5.11240356 32.52903198 5.9284668 31.72973633 C10.35463576 27.13613361 13.40305574 22.01759134 13.5 15.4375 C13.34303082 11.59175499 12.40247335 9.13847387 9.64453125 6.28515625 C6.69948808 3.98368546 3.4300096 2.44690231 0 1 C0 0.67 0 0.34 0 0 Z " fill="#A3AE83" transform="translate(250,98)"/>
<path d="M0 0 C17.01416469 6.05900109 30.7478334 22.45902995 38.9375 38.0625 C46.80486106 54.70428258 48.41556177 73.39942425 43 91 C29.01340812 87.10209734 17.30644205 78.33561699 9.625 65.9375 C8.72749118 64.30383226 7.85078018 62.65848288 7 61 C6.63390625 60.3296875 6.2678125 59.659375 5.890625 58.96875 C-2.78023779 41.62702443 -4.16940043 18.72696805 0 0 Z " fill="#616D45" transform="translate(123,21)"/>
<path d="M0 0 C7.17092906 1.21109024 12.10739078 3.02921216 17.3125 8.375 C19.38391541 11.59720175 20.07286658 13.13807152 20 17 C14.29302029 33.4928983 -3.10684104 42.60386118 -17.87890625 50.0625 C-48.54250419 64.84955238 -92.42938473 78.08117742 -126.04296875 67.25390625 C-130.18981389 65.49546861 -133.53701104 63.87533228 -136 60 C-137.55528204 55.9985462 -137.60927136 52.71573114 -136.171875 48.66796875 C-133.45445922 43.35089188 -129.71345507 38.69240435 -125 35 C-124.34 35 -123.68 35 -123 35 C-123.309375 35.639375 -123.61875 36.27875 -123.9375 36.9375 C-125.66028955 41.90318753 -126.6683555 46.68646172 -125.1875 51.8125 C-116.86762165 60.13237835 -103.4125568 59.29399636 -92.57128906 59.32128906 C-81.40376012 59.20767934 -70.84361953 57.58267874 -60 55 C-59.32549805 54.83983398 -58.65099609 54.67966797 -57.95605469 54.51464844 C-53.9071841 53.51881656 -49.95494216 52.31676855 -46 51 C-44.76636719 50.59265625 -43.53273438 50.1853125 -42.26171875 49.765625 C-25.02920226 43.816483 -4.63541835 35.13811395 5.23828125 18.97265625 C6.12753712 16.66971156 6.23333385 14.90002781 6.1875 12.4375 C6.18105469 11.67308594 6.17460937 10.90867187 6.16796875 10.12109375 C6.07053505 7.81102284 6.07053505 7.81102284 5 5 C2.49552484 3.78130071 2.49552484 3.78130071 0 3 C0 2.01 0 1.02 0 0 Z " fill="#DE5D29" transform="translate(232,99)"/>
<path d="M0 0 C3.47355213 10.42065638 1.11595515 25.10712952 -3.2890625 34.8515625 C-9.14559995 45.21794697 -17.14261058 51.33061292 -28 56 C-29.32 56 -30.64 56 -32 56 C-32.72470841 39.84168665 -29.97082473 24.02837322 -19.359375 11.40234375 C-14.22676501 6.17625907 -7.67092578 0 0 0 Z " fill="#626E46" transform="translate(209,59)"/>
<path d="M0 0 C-0.50273522 14.40336419 -4.63643591 26.16996555 -15.1875 36.25 C-22.88650438 42.72181409 -30.9801848 45.76091547 -41 46 C-42.84733179 42.30533642 -40.5688296 38.27729581 -39.3671875 34.52734375 C-32.92507178 17.9066852 -20.77200376 8.17334097 -5 1 C-2 0 -2 0 0 0 Z " fill="#626E46" transform="translate(250,56)"/>
<path d="M0 0 C0.33 0.99 0.66 1.98 1 3 C3.31 3.33 5.62 3.66 8 4 C8.66 3.01 9.32 2.02 10 1 C10.61786377 1.0707373 11.23572754 1.14147461 11.87231445 1.21435547 C19.98335575 2.05569764 28.03936339 2.15663727 36.1875 2.125 C37.21106598 2.12317215 37.21106598 2.12317215 38.25531006 2.12130737 C55.73379133 2.29945648 55.73379133 2.29945648 73 0 C73.495 1.98 73.495 1.98 74 4 C71.00631024 5.01958999 68.00426547 6.01205022 65 7 C64.23042969 7.26296875 63.46085937 7.5259375 62.66796875 7.796875 C44.34528912 13.75250553 20.07844535 15.63637435 2 8 C-0.45802317 6.48572046 -2.0385006 5.13981752 -4 3 C-2.68 2.01 -1.36 1.02 0 0 Z " fill="#D95B29" transform="translate(101,157)"/>
<path d="M0 0 C3.75650083 0.606975 6.7735302 1.71087883 10.1875 3.375 C15.34378041 5.79200644 20.50465165 7.53377907 26 9 C26 9.33 26 9.66 26 10 C22.7 10.33 19.4 10.66 16 11 C15.34 12.98 14.68 14.96 14 17 C14.66 17.33 15.32 17.66 16 18 C16 18.66 16 19.32 16 20 C36.05856595 21.61672472 55.87832211 22.28036636 76 22 C76 21.34 76 20.68 76 20 C78.64 19.34 81.28 18.68 84 18 C84 18.66 84 19.32 84 20 C90.6 20 97.2 20 104 20 C104 20.33 104 20.66 104 21 C75.20097084 24.53054642 75.20097084 24.53054642 61 25 C59.8140625 25.04125 58.628125 25.0825 57.40625 25.125 C15.31204481 25.85707313 15.31204481 25.85707313 6.2421875 17.3515625 C4.53012026 14.11047924 3.40300052 10.7356482 2.3125 7.25 C2.08755859 6.55261719 1.86261719 5.85523438 1.63085938 5.13671875 C1.08036634 3.42667656 0.53923763 1.71362471 0 0 Z " fill="#D98334" transform="translate(64,183)"/>
<path d="M0 0 C0.66 0.66 1.32 1.32 2 2 C2.99 1.34 3.98 0.68 5 0 C5.99 0.33 6.98 0.66 8 1 C8.02946035 4.62498242 8.04695131 8.24993332 8.0625 11.875 C8.07087891 12.88820312 8.07925781 13.90140625 8.08789062 14.9453125 C8.10845895 21.36263015 7.78323679 27.62990957 7 34 C6.01 34 5.02 34 4 34 C4 36.64 4 39.28 4 42 C3.34 42 2.68 42 2 42 C1.67 42.66 1.34 43.32 1 44 C0.01 44 -0.98 44 -2 44 C-2 42.68 -2 41.36 -2 40 C-1.01 40 -0.02 40 1 40 C0.65775391 38.93072266 0.65775391 38.93072266 0.30859375 37.83984375 C-1.43340827 32.03577424 -2.3556992 27.91577832 -1 22 C-1 19.60109477 -1.0142998 17.20344381 -1.03515625 14.8046875 C-1.04444752 13.16145932 -1.05355551 11.5182301 -1.0625 9.875 C-1.07087891 9.03839844 -1.07925781 8.20179688 -1.08789062 7.33984375 C-1.09645411 5.22637678 -1.05250577 3.11283201 -1 1 C-0.67 0.67 -0.34 0.34 0 0 Z M1 18 C2 20 2 20 2 20 Z " fill="#F4851D" transform="translate(285,136)"/>
<path d="M0 0 C-0.309375 0.639375 -0.61875 1.27875 -0.9375 1.9375 C-2.69777649 7.01123812 -3.870691 11.84618543 -1.8125 16.9375 C0.04638797 19.05278632 1.49031845 19.82881528 4 21 C4.33 21.99 4.66 22.98 5 24 C4.01 24.33 3.02 24.66 2 25 C1.34 25.99 0.68 26.98 0 28 C-4.65795724 27.37054632 -4.65795724 27.37054632 -6.5 25.375 C-6.995 24.92125 -7.49 24.4675 -8 24 C-10.65466049 24.23043864 -10.65466049 24.23043864 -13 25 C-14.21628773 19.90604248 -14.49496376 16.09673923 -12 11.375 C-4.86313708 0 -4.86313708 0 0 0 Z " fill="#D95E2C" transform="translate(109,134)"/>
<path d="M0 0 C0.495 0.99 0.495 0.99 1 2 C7.6 2 14.2 2 21 2 C21 2.33 21 2.66 21 3 C-29.37838555 9.17601474 -29.37838555 9.17601474 -52 6 C-52.66 5.34 -53.32 4.68 -54 4 C-38.49 4 -22.98 4 -7 4 C-7 3.34 -7 2.68 -7 2 C-4.69 1.34 -2.38 0.68 0 0 Z " fill="#DF972F" transform="translate(147,201)"/>
<path d="M0 0 C1.48828125 1.01953125 1.48828125 1.01953125 3 3 C3.2172101 5.64996326 3.28351554 8.05076558 3.1875 10.6875 C3.17396484 11.38939453 3.16042969 12.09128906 3.14648438 12.81445312 C3.11120182 14.54329829 3.05739583 16.27174765 3 18 C2.01 17.34 1.02 16.68 0 16 C-0.99 16.66 -1.98 17.32 -3 18 C-3.33 17.34 -3.66 16.68 -4 16 C-4.08040527 16.86165771 -4.16081055 17.72331543 -4.24365234 18.61108398 C-4.54853057 21.84883852 -4.85853713 25.0860521 -5.171875 28.32299805 C-5.30572533 29.7163607 -5.43760925 31.10991385 -5.56738281 32.50366211 C-6.27843577 40.1256029 -7.10670604 47.56676328 -9 55 C-9.33 55 -9.66 55 -10 55 C-9.85540319 53.35405757 -9.70924064 51.70825269 -9.5625 50.0625 C-9.44068359 48.68771484 -9.44068359 48.68771484 -9.31640625 47.28515625 C-9.14562855 45.51201989 -8.96821224 43.73920229 -8.75268555 41.97094727 C-8.26629008 37.95895918 -7.92925416 33.99837542 -7.82421875 29.95703125 C-7.80037109 29.11076172 -7.77652344 28.26449219 -7.75195312 27.39257812 C-7.70869808 25.66106555 -7.67760504 23.92920972 -7.65820312 22.19726562 C-7.47305294 16.5695612 -6.51761899 13.58154911 -3 9 C-1.93334795 6.51177363 -1.93334795 6.51177363 -1.25 4.125 C-1.00765625 3.34382813 -0.7653125 2.56265625 -0.515625 1.7578125 C-0.34546875 1.17773438 -0.1753125 0.59765625 0 0 Z " fill="#EB8024" transform="translate(289,121)"/>
<path d="M0 0 C0 3 0 3 -2.375 5.6875 C-5 8 -5 8 -7 8 C-7 9.32 -7 10.64 -7 12 C-4.36 12.33 -1.72 12.66 1 13 C-7.33134539 19.9017972 -17.62279995 26.69158953 -28 30 C-28.99 29.67 -29.98 29.34 -31 29 C-30.36191406 28.73445313 -29.72382813 28.46890625 -29.06640625 28.1953125 C-28.24011719 27.84210938 -27.41382813 27.48890625 -26.5625 27.125 C-25.73878906 26.77695313 -24.91507813 26.42890625 -24.06640625 26.0703125 C-21.84253285 25.1755063 -21.84253285 25.1755063 -21 23 C-20.401875 22.896875 -19.80375 22.79375 -19.1875 22.6875 C-16.01528691 21.69051874 -14.86378886 19.66255551 -13 17 C-13 16.67 -13 16.34 -13 16 C-14.32 15.34 -15.64 14.68 -17 14 C-16.10796875 13.32453125 -15.2159375 12.6490625 -14.296875 11.953125 C-13.11446376 11.05224025 -11.93217876 10.1511898 -10.75 9.25 C-10.16347656 8.8065625 -9.57695312 8.363125 -8.97265625 7.90625 C-5.75622151 5.4487493 -2.78757406 2.95317252 0 0 Z " fill="#CB5F34" transform="translate(235,122)"/>
<path d="M0 0 C-1.753686 2.17759024 -2.6477462 2.93641425 -5.4453125 3.44140625 C-6.32960937 3.48136719 -7.21390625 3.52132812 -8.125 3.5625 C-10.74150598 3.64589072 -10.74150598 3.64589072 -13 4 C-13.33 4.66 -13.66 5.32 -14 6 C-14 5.34 -14 4.68 -14 4 C-14.65073486 4.16153564 -15.30146973 4.32307129 -15.97192383 4.48950195 C-19.80445293 5.13562131 -23.57483424 5.16239852 -27.44921875 5.16796875 C-28.26187698 5.17129715 -29.07453522 5.17462555 -29.91181946 5.17805481 C-31.62895138 5.18310547 -33.34609308 5.18546371 -35.06323242 5.18530273 C-37.66146498 5.1874782 -40.25926494 5.20562313 -42.85742188 5.22460938 C-51.16567493 5.25188886 -58.90230017 5.10990531 -67 3 C-67 2.34 -67 1.68 -67 1 C-66.00299072 1.10501831 -66.00299072 1.10501831 -64.98583984 1.2121582 C-56.61577165 2.00913978 -48.30990926 2.18620322 -39.91015625 2.18530273 C-37.63522635 2.18749017 -35.36078234 2.20572591 -33.0859375 2.22460938 C-24.89521592 2.25491085 -17.11856111 1.82059255 -9.02880859 0.4309082 C-5.97636432 -0.00336264 -3.07864393 -0.07291677 0 0 Z " fill="#D98A3C" transform="translate(157,192)"/>
<path d="M0 0 C7.2473514 1.22399713 12.29318332 3.00825525 17.375 8.625 C19 11 19 11 19 13 C18.34 13 17.68 13 17 13 C16.319375 11.824375 16.319375 11.824375 15.625 10.625 C13.92348887 7.8764051 12.95480916 7.12078968 10 6 C10.4125 6.78375 10.825 7.5675 11.25 8.375 C12.30587518 13.47839669 10.81145931 17.63483949 8 22 C5.8515625 22.79296875 5.8515625 22.79296875 4 23 C4.33 22.195625 4.66 21.39125 5 20.5625 C6.47770008 15.29819348 6.739113 10.21733901 5 5 C2.49552484 3.78130071 2.49552484 3.78130071 0 3 C0 2.01 0 1.02 0 0 Z " fill="#CD5E33" transform="translate(232,99)"/>
<path d="M0 0 C0 3 0 3 -2.08203125 5.375 C-3.43361328 6.674375 -3.43361328 6.674375 -4.8125 8 C-5.70582031 8.86625 -6.59914062 9.7325 -7.51953125 10.625 C-8.33808594 11.40875 -9.15664062 12.1925 -10 13 C-10.99 13.99 -11.98 14.98 -13 16 C-10.03 16.33 -7.06 16.66 -4 17 C-4 16.01 -4 15.02 -4 14 C-3.34 14 -2.68 14 -2 14 C-2.08984375 15.703125 -2.08984375 15.703125 -3 18 C-5.16517274 19.73673882 -7.24547306 21.25089089 -9.5625 22.75 C-10.17802734 23.16121094 -10.79355469 23.57242188 -11.42773438 23.99609375 C-12.94504641 25.00763511 -14.47166086 26.00519789 -16 27 C-16.66 26.67 -17.32 26.34 -18 26 C-17.67 25.01 -17.34 24.02 -17 23 C-15.35 23 -13.7 23 -12 23 C-12 21.35 -12 19.7 -12 18 C-12.66 18 -13.32 18 -14 18 C-14.33 18.66 -14.66 19.32 -15 20 C-16.32 19.34 -17.64 18.68 -19 18 C-19 18.66 -19 19.32 -19 20 C-20.32 19.67 -21.64 19.34 -23 19 C-21.76636719 18.19949219 -21.76636719 18.19949219 -20.5078125 17.3828125 C-12.78112244 12.26226892 -6.31942822 6.83297092 0 0 Z " fill="#DA8334" transform="translate(259,219)"/>
<path d="M0 0 C2.125 0.375 2.125 0.375 4 1 C4.33 2.65 4.66 4.3 5 6 C4.01 6.495 4.01 6.495 3 7 C2.835 7.66 2.67 8.32 2.5 9 C2.335 9.66 2.17 10.32 2 11 C1.01 11.495 1.01 11.495 0 12 C0 11.34 0 10.68 0 10 C-0.66 10 -1.32 10 -2 10 C-2 10.99 -2 11.98 -2 13 C-8.75 13.125 -8.75 13.125 -11 12 C-9.85996765 8.57990294 -8.77829802 7.71130558 -6.0625 5.4375 C-3.96656037 3.66869432 -1.94005112 1.94005112 0 0 Z " fill="#F38526" transform="translate(257,223)"/>
<path d="M0 0 C15.18 0.33 30.36 0.66 46 1 C46 1.33 46 1.66 46 2 C34.12 2 22.24 2 10 2 C10 2.66 10 3.32 10 4 C9.34 4.66 8.68 5.32 8 6 C8 6.66 8 7.32 8 8 C8.66 8.33 9.32 8.66 10 9 C9.01 9.99 8.02 10.98 7 12 C4.36 9.03 1.72 6.06 -1 3 C-0.67 2.01 -0.34 1.02 0 0 Z " fill="#E98726" transform="translate(78,210)"/>
<path d="M0 0 C2.09350689 3.4019487 2.17942163 6.05272412 2 10 C0.68 10.33 -0.64 10.66 -2 11 C-2 12.98 -2 14.96 -2 17 C-2.99 17 -3.98 17 -5 17 C-5 17.99 -5 18.98 -5 20 C-5.99 19.67 -6.98 19.34 -8 19 C-9.41000664 16.17998673 -9.24548451 14.12992745 -9 11 C-7.8125 8.1875 -7.8125 8.1875 -6 6 C-3.3125 5.1875 -3.3125 5.1875 -1 5 C-0.67 3.35 -0.34 1.7 0 0 Z " fill="#F18421" transform="translate(271,204)"/>
<path d="M0 0 C0 0.66 0 1.32 0 2 C-2.90600261 3.25664978 -4.79604584 4 -8 4 C-8 4.66 -8 5.32 -8 6 C-12.31818182 10.65909091 -12.31818182 10.65909091 -15 12 C-18.08766857 12.07017429 -21.16230137 11.99687882 -24.25 11.9375 C-26.96253013 11.80344194 -26.96253013 11.80344194 -29 13 C-30.99960012 13.039992 -33.00047242 13.04346799 -35 13 C-31.68732836 11.24525805 -28.29145645 9.94131986 -24.7734375 8.65234375 C-23.5771875 8.21212891 -22.3809375 7.77191406 -21.1484375 7.31835938 C-19.89068319 6.85791392 -18.63287002 6.39762924 -17.375 5.9375 C-14.90310302 5.03141187 -12.43191273 4.12344749 -9.9609375 3.21484375 C-8.86571777 2.81386475 -7.77049805 2.41288574 -6.64208984 1.99975586 C-1.35726496 0 -1.35726496 0 0 0 Z " fill="#DC8633" transform="translate(227,170)"/>
<path d="M0 0 C3.48670834 1.1094072 6.77484237 2.26337666 10 4 C10 4.66 10 5.32 10 6 C10.66 6.33 11.32 6.66 12 7 C11.360625 7.268125 10.72125 7.53625 10.0625 7.8125 C7.66868314 8.88667752 7.66868314 8.88667752 7 12 C6.34 12 5.68 12 5 12 C4.67 12.99 4.34 13.98 4 15 C3.32243118 13.44219668 2.65840543 11.87849904 2 10.3125 C1.62875 9.44238281 1.2575 8.57226562 0.875 7.67578125 C-0.01870488 4.9427998 -0.16449676 2.85299066 0 0 Z " fill="#E5862B" transform="translate(66,185)"/>
<path d="M0 0 C0.66 0.33 1.32 0.66 2 1 C1.625 3.4375 1.625 3.4375 1 6 C-1.86466826 7.43233413 -4.04581981 6.60763875 -7.125 6.05859375 C-7.74375 6.03925781 -8.3625 6.01992187 -9 6 C-9.66 6.66 -10.32 7.32 -11 8 C-12.32 8 -13.64 8 -15 8 C-15 7.34 -15 6.68 -15 6 C-16.32 6.33 -17.64 6.66 -19 7 C-19 6.01 -19 5.02 -19 4 C-12.89468757 1.42497027 -9.23160816 0.48083925 -3 3 C-2.01 2.01 -1.02 1.02 0 0 Z " fill="#DF5A24" transform="translate(200,148)"/>
<path d="M0 0 C0.598125 0.185625 1.19625 0.37125 1.8125 0.5625 C4.16408762 1.22093687 4.16408762 1.22093687 7 0 C7 1.65 7 3.3 7 5 C6.360625 5.268125 5.72125 5.53625 5.0625 5.8125 C2.66868314 6.88667752 2.66868314 6.88667752 2 10 C1.01 10.33 0.02 10.66 -1 11 C-1.45375 10.21625 -1.9075 9.4325 -2.375 8.625 C-3.88428742 5.96301969 -3.88428742 5.96301969 -6 4 C-5.34 3.01 -4.68 2.02 -4 1 C-2.68 1.33 -1.36 1.66 0 2 C0 1.34 0 0.68 0 0 Z " fill="#F48820" transform="translate(240,237)"/>
<path d="M0 0 C0.64759277 0.14147461 1.29518555 0.28294922 1.96240234 0.42871094 C9.24698304 1.9014153 16.20506901 2.31198958 23.625 2.25 C24.75276855 2.24613281 25.88053711 2.24226562 27.04248047 2.23828125 C36.13671144 2.14496721 45.01950593 1.40085701 54 0 C49.04091791 4.95908209 38.9645583 4.13359813 32.36328125 4.23046875 C30.35700029 4.22752843 28.35067872 4.22447397 26.34448242 4.20581055 C24.30439816 4.18742699 22.26476843 4.18530269 20.22460938 4.18554688 C13.40380064 4.15546982 6.75865763 3.93145778 0 3 C0 2.01 0 1.02 0 0 Z " fill="#B4613D" transform="translate(113,156)"/>
<path d="M0 0 C-0.309375 0.639375 -0.61875 1.27875 -0.9375 1.9375 C-2.77112439 7.22265264 -3.63546242 12.57715092 -2 18 C-2.99 17.67 -3.98 17.34 -5 17 C-5 15.68 -5 14.36 -5 13 C-5.66 13 -6.32 13 -7 13 C-7 12.34 -7 11.68 -7 11 C-7.99 11 -8.98 11 -10 11 C-10.66 12.65 -11.32 14.3 -12 16 C-12.33 15.01 -12.66 14.02 -13 13 C-10.74623392 8.9499993 -4.99454603 0 0 0 Z " fill="#C25E36" transform="translate(109,134)"/>
<path d="M0 0 C0.66 0 1.32 0 2 0 C1.44148631 4.9130272 -0.77729962 8.43722194 -3.3125 12.5625 C-3.70373047 13.22185547 -4.09496094 13.88121094 -4.49804688 14.56054688 C-6.67539273 18.15334808 -8.84710817 21.16456181 -12 24 C-12.66 22.02 -13.32 20.04 -14 18 C-13.195625 17.7525 -12.39125 17.505 -11.5625 17.25 C-8.828919 16.27761141 -8.828919 16.27761141 -8.1875 13.875 C-8.125625 13.25625 -8.06375 12.6375 -8 12 C-7.01 12 -6.02 12 -5 12 C-5.33 10.35 -5.66 8.7 -6 7 C-4.35 6.67 -2.7 6.34 -1 6 C-0.67 4.02 -0.34 2.04 0 0 Z " fill="#DF8637" transform="translate(255,197)"/>
<path d="M0 0 C-0.33 5.61 -0.66 11.22 -1 17 C-1.33 17 -1.66 17 -2 17 C-2.33 12.05 -2.66 7.1 -3 2 C-4.98 2.66 -6.96 3.32 -9 4 C-9 4.66 -9 5.32 -9 6 C-14.445 7.485 -14.445 7.485 -20 9 C-16.90824029 5.90824029 -13.85003789 4.16712952 -10 2.25 C-9.05640625 1.75693359 -9.05640625 1.75693359 -8.09375 1.25390625 C-3.36358833 -1.12119611 -3.36358833 -1.12119611 0 0 Z " fill="#E3A328" transform="translate(265,154)"/>
<path d="M0 0 C0.5625 1.9375 0.5625 1.9375 1 4 C0.67 4.33 0.34 4.66 0 5 C-0.27644697 7.10878212 -0.49254749 9.22552285 -0.68359375 11.34375 C-0.80669922 12.6534375 -0.92980469 13.963125 -1.05664062 15.3125 C-1.2469434 17.39437823 -1.43538218 19.47641023 -1.62231445 21.55859375 C-2.3113747 29.16654898 -3.10456194 36.58235493 -5 44 C-5.33 44 -5.66 44 -6 44 C-5.85540319 42.35405757 -5.70924064 40.70825269 -5.5625 39.0625 C-5.44068359 37.68771484 -5.44068359 37.68771484 -5.31640625 36.28515625 C-5.1457756 34.51354666 -4.96879499 32.74224783 -4.75488281 30.9753418 C-4.26816086 26.94116559 -3.92302934 22.94910001 -3.7890625 18.88671875 C-3.76070313 18.03142578 -3.73234375 17.17613281 -3.703125 16.29492188 C-3.65046339 14.53734074 -3.60637404 12.77948445 -3.5703125 11.02148438 C-3.28282725 3.13360783 -3.28282725 3.13360783 0 0 Z " fill="#C57F3A" transform="translate(285,132)"/>
<path d="M0 0 C4.29 0.66 8.58 1.32 13 2 C9.26825691 4.48782873 5.666376 5.38673276 1.375 6.5625 C0.60542969 6.78357422 -0.16414063 7.00464844 -0.95703125 7.23242188 C-6.30609972 8.71528759 -11.47061152 9.50886669 -17 10 C-14.20714934 8.13809956 -12.79886258 7.58202158 -9.625 6.9375 C-8.83480469 6.77378906 -8.04460937 6.61007813 -7.23046875 6.44140625 C-6.49441406 6.29574219 -5.75835937 6.15007812 -5 6 C-3.989375 5.79375 -2.97875 5.5875 -1.9375 5.375 C-1.298125 5.25125 -0.65875 5.1275 0 5 C0 3.35 0 1.7 0 0 Z " fill="#C46037" transform="translate(175,156)"/>
<path d="M0 0 C2.97 0.33 5.94 0.66 9 1 C8.34 2.32 7.68 3.64 7 5 C4.375 5.75 4.375 5.75 2 6 C1.67 6.99 1.34 7.98 1 9 C-0.65 9 -2.3 9 -4 9 C-4.33 8.01 -4.66 7.02 -5 6 C-3.625 4.5 -3.625 4.5 -2 3 C-1.34 3 -0.68 3 0 3 C0 2.01 0 1.02 0 0 Z " fill="#E05A24" transform="translate(217,136)"/>
<path d="M0 0 C0.66 0 1.32 0 2 0 C2.02720824 2.68756955 2.0469388 5.37485798 2.0625 8.0625 C2.07087891 8.81466797 2.07925781 9.56683594 2.08789062 10.34179688 C2.10808341 15.00633118 1.77595959 19.39923173 1 24 C-0.70483531 21.0282571 -1.24872739 18.90407989 -1.23046875 15.48828125 C-1.22853516 14.64845703 -1.22660156 13.80863281 -1.22460938 12.94335938 C-1.21236328 12.07517578 -1.20011719 11.20699219 -1.1875 10.3125 C-1.18685547 9.43271484 -1.18621094 8.55292969 -1.18554688 7.64648438 C-1.14040057 1.14040057 -1.14040057 1.14040057 0 0 Z " fill="#E28F32" transform="translate(291,143)"/>
<path d="M0 0 C2.875 -0.125 2.875 -0.125 6 0 C6.66 0.66 7.32 1.32 8 2 C-2.65404888 4.42531194 -13.13575149 4.19323762 -24 4 C-23.67 3.34 -23.34 2.68 -23 2 C-15.41 2 -7.82 2 0 2 C0 1.34 0 0.68 0 0 Z " fill="#DA9334" transform="translate(187,261)"/>
<path d="M0 0 C0.33 0.99 0.66 1.98 1 3 C0.2575 3.28875 -0.485 3.5775 -1.25 3.875 C-3.92236812 4.90202913 -3.92236812 4.90202913 -6 6.125 C-8.44288623 7.19376273 -10.36175261 7.1465693 -13 7 C-13 7.66 -13 8.32 -13 9 C-13.66 9 -14.32 9 -15 9 C-15 8.34 -15 7.68 -15 7 C-15.66 6.67 -16.32 6.34 -17 6 C-16.67 5.34 -16.34 4.68 -16 4 C-13.30941402 3.19954337 -10.66781273 2.5045341 -7.9375 1.875 C-7.17888672 1.69324219 -6.42027344 1.51148438 -5.63867188 1.32421875 C-3.76086265 0.87543416 -1.88064085 0.43676664 0 0 Z " fill="#A8B390" transform="translate(182,168)"/>
<path d="M0 0 C-19.64772727 7.74090909 -19.64772727 7.74090909 -24 6 C-23.34 6 -22.68 6 -22 6 C-22 5.34 -22 4.68 -22 4 C-20.02 3.67 -18.04 3.34 -16 3 C-16 2.34 -16 1.68 -16 1 C-13.8973294 0.63705686 -11.79278943 0.28493028 -9.6875 -0.0625 C-8.51574219 -0.25972656 -7.34398437 -0.45695313 -6.13671875 -0.66015625 C-3 -1 -3 -1 0 0 Z " fill="#D9873A" transform="translate(227,254)"/>
<path d="M0 0 C0.33 0.66 0.66 1.32 1 2 C0.15881995 4.47614972 -0.74264548 6.84251511 -1.75 9.25 C-2.01554687 9.90613281 -2.28109375 10.56226563 -2.5546875 11.23828125 C-4.19907597 15.2534628 -6.01047429 19.14079953 -8 23 C-9.11544282 19.65367153 -8.67217232 18.36086161 -8 15 C-8.33 14.01 -8.66 13.02 -9 12 C-8.34 12 -7.68 12 -7 12 C-6.67 11.34 -6.34 10.68 -6 10 C-5.67 10.33 -5.34 10.66 -5 11 C-5 10.01 -5 9.02 -5 8 C-4.67 7.01 -4.34 6.02 -4 5 C-3.34 4.67 -2.68 4.34 -2 4 C-0.86649466 1.98330173 -0.86649466 1.98330173 0 0 Z " fill="#DE8233" transform="translate(287,186)"/>
<path d="M0 0 C-7.95385196 2.71568765 -15.87048181 5.35357356 -24.0234375 7.421875 C-25.98352429 7.82346855 -25.98352429 7.82346855 -27 9 C-29.33297433 9.04092937 -31.66705225 9.04241723 -34 9 C-34 8.34 -34 7.68 -34 7 C-33.16750732 6.79318604 -32.33501465 6.58637207 -31.47729492 6.37329102 C-28.38526092 5.60454612 -25.29349423 4.83473765 -22.2019043 4.06420898 C-20.86444527 3.73110048 -19.5268809 3.39841465 -18.18920898 3.06616211 C-16.26518474 2.58819248 -14.34157119 2.10857061 -12.41796875 1.62890625 C-10.68196411 1.1968689 -10.68196411 1.1968689 -8.91088867 0.75610352 C-2.62779297 -0.87593099 -2.62779297 -0.87593099 0 0 Z " fill="#C98437" transform="translate(192,184)"/>
<path d="M0 0 C15.18 0.33 30.36 0.66 46 1 C46 1.33 46 1.66 46 2 C31.15 2 16.3 2 1 2 C0.67 2.66 0.34 3.32 0 4 C0 2.68 0 1.36 0 0 Z " fill="#C1844A" transform="translate(78,210)"/>
<path d="M0 0 C0.33 0.66 0.66 1.32 1 2 C-2.87428884 8.4718234 -7.07767135 13.32526851 -13 18 C-13.33 17.34 -13.66 16.68 -14 16 C-13.525625 15.566875 -13.05125 15.13375 -12.5625 14.6875 C-10.76313043 12.97690387 -10.76313043 12.97690387 -10 10 C-9.34 10 -8.68 10 -8 10 C-7.67 9.01 -7.34 8.02 -7 7 C-6.38125 6.71125 -5.7625 6.4225 -5.125 6.125 C-2.32079102 4.64041877 -1.45276712 2.76025753 0 0 Z " fill="#C6633D" transform="translate(250,117)"/>
<path d="M0 0 C-0.33 1.65 -0.66 3.3 -1 5 C-0.01 5 0.98 5 2 5 C2.3403125 5.9590625 2.3403125 5.9590625 2.6875 6.9375 C3.85250896 9.27193661 3.85250896 9.27193661 6.625 9.75 C7.40875 9.8325 8.1925 9.915 9 10 C9 11.32 9 12.64 9 14 C4.89889238 12.59601721 2.01910841 10.62912962 -1.3125 7.875 C-2.19550781 7.15054688 -3.07851562 6.42609375 -3.98828125 5.6796875 C-4.65214844 5.12539062 -5.31601563 4.57109375 -6 4 C-2.25 0 -2.25 0 0 0 Z " fill="#E68C25" transform="translate(101,228)"/>
<path d="M0 0 C2 3 2 3 2 5 C2.99 4.67 3.98 4.34 5 4 C5 4.66 5 5.32 5 6 C4.34 6 3.68 6 3 6 C2.34 7.32 1.68 8.64 1 10 C0.34 9.67 -0.32 9.34 -1 9 C-1.33 10.32 -1.66 11.64 -2 13 C-3.32 13 -4.64 13 -6 13 C-4.31326082 8.50202887 -2.18326108 4.27113698 0 0 Z " fill="#DF842D" transform="translate(272,197)"/>
<path d="M0 0 C1.46015291 0.28241641 2.91809793 0.57626614 4.375 0.875 C5.18710938 1.03742188 5.99921875 1.19984375 6.8359375 1.3671875 C9 2 9 2 11 4 C9.35 4 7.7 4 6 4 C6.99 5.485 6.99 5.485 8 7 C8.1953125 9.91796875 8.1953125 9.91796875 8.125 13.1875 C8.10695312 14.27417969 8.08890625 15.36085938 8.0703125 16.48046875 C8.03550781 17.72763672 8.03550781 17.72763672 8 19 C7.34 19 6.68 19 6 19 C6.01160156 18.24074219 6.02320313 17.48148438 6.03515625 16.69921875 C6.04417969 15.70535156 6.05320313 14.71148437 6.0625 13.6875 C6.07410156 12.70136719 6.08570313 11.71523437 6.09765625 10.69921875 C6.12329862 7.90036151 6.12329862 7.90036151 5 5 C2.49552484 3.78130071 2.49552484 3.78130071 0 3 C0 2.01 0 1.02 0 0 Z " fill="#B96743" transform="translate(232,99)"/>
<path d="M0 0 C2.00881937 3.01322906 3.03927918 5.52662474 4 9 C2.60804085 11.7839183 0.84424221 11.97898997 -2 13 C-1.7215625 12.0409375 -1.7215625 12.0409375 -1.4375 11.0625 C-1.293125 10.381875 -1.14875 9.70125 -1 9 C-1.33 8.67 -1.66 8.34 -2 8 C-2.69100553 6.00827818 -3.35902703 4.00838196 -4 2 C-2.68 1.34 -1.36 0.68 0 0 Z " fill="#F3851C" transform="translate(276,194)"/>
<path d="M0 0 C0.33 0.66 0.66 1.32 1 2 C7.6 2 14.2 2 21 2 C21 2.33 21 2.66 21 3 C13.02509872 4.32915021 5.05813281 4.08801359 -3 4 C-3.33 3.01 -3.66 2.02 -4 1 C-2.68 0.67 -1.36 0.34 0 0 Z " fill="#E28634" transform="translate(147,201)"/>
<path d="M0 0 C0.75 1.75 0.75 1.75 1 4 C-1.31787009 7.00464642 -3.2273236 8.46104623 -7 9 C-7 9.66 -7 10.32 -7 11 C-8.32 10.67 -9.64 10.34 -11 10 C-9.54474941 8.51780033 -8.085701 7.03932861 -6.625 5.5625 C-5.81289062 4.73878906 -5.00078125 3.91507813 -4.1640625 3.06640625 C-2 1 -2 1 0 0 Z " fill="#A4AC98" transform="translate(86,145)"/>
<path d="M0 0 C1.58323688 -0.027193 3.16661062 -0.04648306 4.75 -0.0625 C6.07257813 -0.07990234 6.07257813 -0.07990234 7.421875 -0.09765625 C9.7818838 -0.00826198 11.74498524 0.33087179 14 1 C14 1.66 14 2.32 14 3 C13.01 3.66 12.02 4.32 11 5 C11.33 5.66 11.66 6.32 12 7 C8 5 4 3 0 1 C0 0.67 0 0.34 0 0 Z " fill="#9BA187" transform="translate(250,98)"/>
<path d="M0 0 C0.66 0.33 1.32 0.66 2 1 C1.67 1.66 1.34 2.32 1 3 C-0.2065625 3.37125 -0.2065625 3.37125 -1.4375 3.75 C-4.29440463 4.778242 -4.29440463 4.778242 -5.0625 7.875 C-5.371875 8.90625 -5.68125 9.9375 -6 11 C-8.125 13.375 -8.125 13.375 -10 15 C-10.99 14.67 -11.98 14.34 -13 14 C-11.77801556 12.41111701 -10.54705525 10.82913536 -9.3125 9.25 C-8.28576172 7.92742187 -8.28576172 7.92742187 -7.23828125 6.578125 C-5.01538057 4.01771584 -2.70749594 2.02943654 0 0 Z " fill="#676F56" transform="translate(230,65)"/>
<path d="M0 0 C0.33 0 0.66 0 1 0 C1 18.8 1 18.8 0 25 C-0.66 25.33 -1.32 25.66 -2 26 C-1.85815167 22.97893247 -1.71164333 19.95820903 -1.5625 16.9375 C-1.52318359 16.08994141 -1.48386719 15.24238281 -1.44335938 14.36914062 C-1.19996611 9.51999791 -0.77401958 4.79371788 0 0 Z " fill="#F08B2B" transform="translate(284,141)"/>
<path d="M0 0 C0.99 0.33 1.98 0.66 3 1 C3.26218749 4.14624993 3.24754367 5.61837017 1.5 8.3125 C0.7575 9.1478125 0.7575 9.1478125 0 10 C-0.33 9.34 -0.66 8.68 -1 8 C-2.65 8.33 -4.3 8.66 -6 9 C-5.67 7.35 -5.34 5.7 -5 4 C-3.35 4.33 -1.7 4.66 0 5 C0 3.35 0 1.7 0 0 Z " fill="#E15921" transform="translate(102,150)"/>
<path d="M0 0 C2.97 0.99 5.94 1.98 9 3 C9 3.33 9 3.66 9 4 C2.25 5.125 2.25 5.125 0 4 C0 4.99 0 5.98 0 7 C-0.99 6.67 -1.98 6.34 -3 6 C-3.33 4.35 -3.66 2.7 -4 1 C-2.68 1.33 -1.36 1.66 0 2 C0 1.34 0 0.68 0 0 Z " fill="#AAB390" transform="translate(264,99)"/>
<path d="M0 0 C2.50276394 3.03496087 3.91612312 5.93195283 5.25 9.625 C5.60578125 10.58664063 5.9615625 11.54828125 6.328125 12.5390625 C7 15 7 15 6 17 C2.6663556 13.34374485 1.50036016 10.90352953 1 6 C0.814375 4.88625 0.62875 3.7725 0.4375 2.625 C0.293125 1.75875 0.14875 0.8925 0 0 Z " fill="#696F56" transform="translate(160,58)"/>
<path d="M0 0 C0.33 0 0.66 0 1 0 C0.58411954 6.19518473 -0.60251894 11.26689311 -3 17 C-3.33 17 -3.66 17 -4 17 C-4.22755952 10.40077399 -3.76610404 5.64915606 0 0 Z " fill="#DF8A39" transform="translate(261,180)"/>
<path d="M0 0 C0 0.66 0 1.32 0 2 C-3.3 2.33 -6.6 2.66 -10 3 C-10.33 3.99 -10.66 4.98 -11 6 C-13.97 6 -16.94 6 -20 6 C-20 5.67 -20 5.34 -20 5 C-18.948125 4.71125 -17.89625 4.4225 -16.8125 4.125 C-13.16142269 3.11498796 -13.16142269 3.11498796 -10.375 1.9375 C-6.87925768 0.55760172 -3.75193714 0 0 0 Z " fill="#CA5D2F" transform="translate(180,153)"/>
<path d="M0 0 C0.99 0.33 1.98 0.66 3 1 C3.33 2.65 3.66 4.3 4 6 C0.25 7.125 0.25 7.125 -2 6 C-2.33 6.66 -2.66 7.32 -3 8 C-3 6.68 -3 5.36 -3 4 C-2.34 4 -1.68 4 -1 4 C-0.67 2.68 -0.34 1.36 0 0 Z " fill="#F7811B" transform="translate(258,223)"/>
<path d="M0 0 C1.98 0.66 3.96 1.32 6 2 C5.01 3.485 5.01 3.485 4 5 C3.34 5 2.68 5 2 5 C1.67 5.99 1.34 6.98 1 8 C0.34 8 -0.32 8 -1 8 C-1.04241723 5.66705225 -1.04092937 3.33297433 -1 1 C-0.67 0.67 -0.34 0.34 0 0 Z " fill="#F8821B" transform="translate(72,189)"/>
<path d="M0 0 C-2.14591865 2.14591865 -6.43125282 1.94633125 -9.3359375 2.40234375 C-12.2077297 2.87912778 -12.2077297 2.87912778 -15 5 C-15.99 4.67 -16.98 4.34 -18 4 C-17.67 3.01 -17.34 2.02 -17 1 C-14.73052303 0.63724344 -12.45935265 0.28506814 -10.1875 -0.0625 C-8.92292969 -0.25972656 -7.65835938 -0.45695313 -6.35546875 -0.66015625 C-3 -1 -3 -1 0 0 Z " fill="#9BA385" transform="translate(155,176)"/>
<path d="M0 0 C0 0.66 0 1.32 0 2 C-1.32 2.33 -2.64 2.66 -4 3 C-4 3.66 -4 4.32 -4 5 C-9.445 6.485 -9.445 6.485 -15 8 C-12.24397822 5.24397822 -10.36058656 3.99127441 -6.9375 2.3125 C-5.62072266 1.65701172 -5.62072266 1.65701172 -4.27734375 0.98828125 C-2 0 -2 0 0 0 Z " fill="#D48739" transform="translate(260,155)"/>
<path d="M0 0 C0.99 0.33 1.98 0.66 3 1 C3.33 1.99 3.66 2.98 4 4 C2.125 5.0625 2.125 5.0625 0 6 C-0.66 5.67 -1.32 5.34 -2 5 C-4.60931266 5.89363605 -4.60931266 5.89363605 -7 7 C-2.25 1.125 -2.25 1.125 0 0 Z " fill="#50593C" transform="translate(196,65)"/>
<path d="M0 0 C-0.33 2.97 -0.66 5.94 -1 9 C-1.33 9 -1.66 9 -2 9 C-2 7.02 -2 5.04 -2 3 C-4.02045442 3.60183749 -6.02111039 4.27306096 -8 5 C-8.33 5.66 -8.66 6.32 -9 7 C-8.67 5.35 -8.34 3.7 -8 2 C-2.25 0 -2.25 0 0 0 Z " fill="#5F6550" transform="translate(250,56)"/>
<path d="M0 0 C-2.31 1.32 -4.62 2.64 -7 4 C-6.67 5.32 -6.34 6.64 -6 8 C-7.65 7.67 -9.3 7.34 -11 7 C-11 4 -11 4 -9.3125 1.875 C-6.28976023 -0.57587008 -3.63877521 -1.81938761 0 0 Z " fill="#E2862C" transform="translate(218,244)"/>
<path d="M0 0 C-3.35458711 2.23639141 -6.06313281 3.17118585 -10 4 C-12.4375 3.125 -12.4375 3.125 -14 2 C-8.78984652 -0.17089728 -5.58221229 -1.39555307 0 0 Z " fill="#ABB18D" transform="translate(193,176)"/>
<path d="M0 0 C0.33 0.66 0.66 1.32 1 2 C0.01 2 -0.98 2 -2 2 C-2 2.99 -2 3.98 -2 5 C-6.75 4.125 -6.75 4.125 -9 3 C-10.66619446 2.9603287 -12.33391013 2.95615553 -14 3 C-9.56270856 0.04180571 -5.24640913 -0.15430615 0 0 Z " fill="#CE7D37" transform="translate(183,200)"/>
<path d="M0 0 C-1.57297914 1.86562642 -2.45510217 2.90238443 -4.90112305 3.34057617 C-5.59761963 3.32486572 -6.29411621 3.30915527 -7.01171875 3.29296875 C-7.76904297 3.28330078 -8.52636719 3.27363281 -9.30664062 3.26367188 C-10.09232422 3.23853516 -10.87800781 3.21339844 -11.6875 3.1875 C-12.88342773 3.16719727 -12.88342773 3.16719727 -14.10351562 3.14648438 C-16.06929967 3.11117089 -18.03473582 3.05736447 -20 3 C-20 2.67 -20 2.34 -20 2 C-17.79248152 1.66131223 -15.58394089 1.32928311 -13.375 1 C-12.14523438 0.814375 -10.91546875 0.62875 -9.6484375 0.4375 C-6.3833973 0.04597484 -3.28287549 -0.08080924 0 0 Z " fill="#D78E33" transform="translate(157,192)"/>
<path d="M0 0 C0.33 1.32 0.66 2.64 1 4 C0.01 4.495 0.01 4.495 -1 5 C-1.99 5.66 -2.98 6.32 -4 7 C-4 6.34 -4 5.68 -4 5 C-5.32 5.33 -6.64 5.66 -8 6 C-8 5.01 -8 4.02 -8 3 C-5.36 2.01 -2.72 1.02 0 0 Z " fill="#D25424" transform="translate(189,149)"/>
<path d="M0 0 C0.99 0.99 1.98 1.98 3 3 C2.09456151 5.71631546 1.07525194 8.34771188 0 11 C-0.99 11 -1.98 11 -3 11 C-2.01 7.37 -1.02 3.74 0 0 Z " fill="#D99B30" transform="translate(289,121)"/>
<path d="M0 0 C0.66 0.33 1.32 0.66 2 1 C2 1.66 2 2.32 2 3 C0.73308493 3.67408308 -0.53870749 4.33900497 -1.8125 5 C-2.52019531 5.37125 -3.22789062 5.7425 -3.95703125 6.125 C-6 7 -6 7 -9 7 C-9 6.34 -9 5.68 -9 5 C-7.54735962 4.1361871 -6.0876837 3.28419546 -4.625 2.4375 C-3.40683594 1.72400391 -3.40683594 1.72400391 -2.1640625 0.99609375 C-1.44992188 0.66738281 -0.73578125 0.33867187 0 0 Z " fill="#AAB190" transform="translate(232,158)"/>
<path d="M0 0 C1.65 0.99 3.3 1.98 5 3 C4.773125 3.53625 4.54625 4.0725 4.3125 4.625 C3.86041855 8.06081901 5.32821985 10.05766694 7 13 C4 12 4 12 2.83203125 10.29296875 C2.49558594 9.59816406 2.15914062 8.90335938 1.8125 8.1875 C1.46832031 7.50042969 1.12414062 6.81335938 0.76953125 6.10546875 C0 4 0 4 0 0 Z " fill="#6A7356" transform="translate(127,72)"/>
<path d="M0 0 C-1.485 2.475 -1.485 2.475 -3 5 C-3.33 4.34 -3.66 3.68 -4 3 C-6.31 3 -8.62 3 -11 3 C-4.33333333 -1.44444444 -4.33333333 -1.44444444 0 0 Z " fill="#E3822D" transform="translate(224,246)"/>
<path d="M0 0 C0.99 1.32 1.98 2.64 3 4 C2.0479279 5.00596297 1.08812654 6.00461563 0.125 7 C-0.40867188 7.556875 -0.94234375 8.11375 -1.4921875 8.6875 C-3 10 -3 10 -5 10 C-4.0022242 7.00667261 -3.2477975 6.05233685 -1 4 C-1.33 3.01 -1.66 2.02 -2 1 C-1.34 0.67 -0.68 0.34 0 0 Z " fill="#687052" transform="translate(236,84)"/>
<path d="M0 0 C1.98 0 3.96 0 6 0 C2.27074217 3.2428329 -2.30238735 5.5119901 -7 7 C-7.99 6.67 -8.98 6.34 -10 6 C-9.36191406 5.73445312 -8.72382813 5.46890625 -8.06640625 5.1953125 C-7.24011719 4.84210938 -6.41382813 4.48890625 -5.5625 4.125 C-4.73878906 3.77695313 -3.91507813 3.42890625 -3.06640625 3.0703125 C-0.84253285 2.1755063 -0.84253285 2.1755063 0 0 Z " fill="#BF6741" transform="translate(214,145)"/>
<path d="M0 0 C1 2 1 2 0.00390625 5.0390625 C-0.47175781 6.22242188 -0.94742187 7.40578125 -1.4375 8.625 C-1.91058594 9.81351563 -2.38367188 11.00203125 -2.87109375 12.2265625 C-3.24363281 13.14179688 -3.61617188 14.05703125 -4 15 C-5.07318928 11.78043217 -4.870689 11.09578311 -4 8 C-4 7.01 -4 6.02 -4 5 C-3.34 4.67 -2.68 4.34 -2 4 C-0.86649466 1.98330173 -0.86649466 1.98330173 0 0 Z " fill="#D8883D" transform="translate(287,186)"/>
<path d="M0 0 C0.33 0 0.66 0 1 0 C0.979375 0.78375 0.95875 1.5675 0.9375 2.375 C0.81315937 4.98114961 0.81315937 4.98114961 2 7 C1.34 7 0.68 7 0 7 C-0.33 7.99 -0.66 8.98 -1 10 C-1.66 10 -2.32 10 -3 10 C-3.33 8.35 -3.66 6.7 -4 5 C-3.01 4.34 -2.02 3.68 -1 3 C-0.67 2.01 -0.34 1.02 0 0 Z " fill="#F0881C" transform="translate(279,183)"/>
<path d="M0 0 C0.33 0.66 0.66 1.32 1 2 C0.38125 2.0825 -0.2375 2.165 -0.875 2.25 C-3.18437567 2.81258459 -3.18437567 2.81258459 -4.25 5.0625 C-4.4975 5.701875 -4.745 6.34125 -5 7 C-7.31 7 -9.62 7 -12 7 C-8.35140239 3.95950199 -4.2555467 2.03481238 0 0 Z " fill="#BF5D39" transform="translate(216,137)"/>
<path d="M0 0 C3.66666667 0 7.33333333 0 11 0 C11 0.66 11 1.32 11 2 C11.66 2.33 12.32 2.66 13 3 C9.57056481 4.18771723 7.62215325 3.80226223 4.25 2.5625 C3.45078125 2.27503906 2.6515625 1.98757813 1.828125 1.69140625 C1.22484375 1.46324219 0.6215625 1.23507812 0 1 C0 0.67 0 0.34 0 0 Z " fill="#DF8C34" transform="translate(139,258)"/>
<path d="M0 0 C1.4540625 0.0309375 1.4540625 0.0309375 2.9375 0.0625 C2.298125 0.371875 1.65875 0.68125 1 1 C-0.99860821 1.8970163 -0.99860821 1.8970163 -2.0625 3.0625 C-9.52114662 3.42340226 -9.52114662 3.42340226 -13.0625 1.0625 C-12.42441406 1.07410156 -11.78632812 1.08570313 -11.12890625 1.09765625 C-10.30261719 1.10667969 -9.47632812 1.11570313 -8.625 1.125 C-7.38943359 1.14240234 -7.38943359 1.14240234 -6.12890625 1.16015625 C-3.22115264 1.02273878 -3.2777182 0.06689221 0 0 Z " fill="#ABB28D" transform="translate(133.0625,186.9375)"/>
<path d="M0 0 C2.64 0.33 5.28 0.66 8 1 C5.04816899 3.95183101 2.04488053 4.08663988 -2 5 C-1.34 3.35 -0.68 1.7 0 0 Z " fill="#CB5B33" transform="translate(191,153)"/>
<path d="M0 0 C-0.33 0.99 -0.66 1.98 -1 3 C-4.3 3.33 -7.6 3.66 -11 4 C-11 3.01 -11 2.02 -11 1 C-7.26562152 0.12132271 -3.83225427 -0.08912219 0 0 Z " fill="#AAB38E" transform="translate(212,168)"/>
<path d="M0 0 C0.66 0 1.32 0 2 0 C0.84414715 3.91211733 -0.35534962 6.8745041 -3 10 C-3.66 9.67 -4.32 9.34 -5 9 C-4.3566152 7.686298 -3.71021785 6.37407102 -3.0625 5.0625 C-2.70285156 4.33160156 -2.34320313 3.60070312 -1.97265625 2.84765625 C-1 1 -1 1 0 0 Z " fill="#697158" transform="translate(205,89)"/>
<path d="M0 0 C1 4 1 4 0.22265625 5.921875 C-0.8515625 7.61458333 -1.92578125 9.30729167 -3 11 C-3.66 10.34 -4.32 9.68 -5 9 C-3.35 6.03 -1.7 3.06 0 0 Z " fill="#697358" transform="translate(216,80)"/>
<path d="M0 0 C1.32 0.33 2.64 0.66 4 1 C2.71283353 2.00578589 1.42011342 3.00446798 0.125 4 C-0.95394531 4.8353125 -0.95394531 4.8353125 -2.0546875 5.6875 C-4 7 -4 7 -6 7 C-5.67 5.68 -5.34 4.36 -5 3 C-3.68 3 -2.36 3 -1 3 C-0.67 2.01 -0.34 1.02 0 0 Z " fill="#DA863B" transform="translate(224,236)"/>
<path d="M0 0 C-0.66 1.32 -1.32 2.64 -2 4 C-9.625 3.125 -9.625 3.125 -13 2 C-10.73548507 0.86774254 -9.01180526 0.69438917 -6.5 0.4375 C-5.7059375 0.35371094 -4.911875 0.26992187 -4.09375 0.18359375 C-2 0 -2 0 0 0 Z " fill="#F0882C" transform="translate(188,198)"/>
<path d="M0 0 C0.99 0.33 1.98 0.66 3 1 C3 1.66 3 2.32 3 3 C4.32 3.33 5.64 3.66 7 4 C3.7 4.33 0.4 4.66 -3 5 C-2.01 3.35 -1.02 1.7 0 0 Z " fill="#9AA57B" transform="translate(164,179)"/>
<path d="M0 0 C-1.875 4.75 -1.875 4.75 -3 7 C-4.32 6.34 -5.64 5.68 -7 5 C-2.25 0 -2.25 0 0 0 Z " fill="#B77B5C" transform="translate(109,134)"/>
<path d="M0 0 C0.66 0.66 1.32 1.32 2 2 C1.625 5.625 1.625 5.625 1 9 C-0.65 9 -2.3 9 -4 9 C-4 8.34 -4 7.68 -4 7 C-3.01 7 -2.02 7 -1 7 C-0.67 4.69 -0.34 2.38 0 0 Z " fill="#ED671A" transform="translate(290,125)"/>
<path d="M0 0 C0.33 0.99 0.66 1.98 1 3 C1.99 3.33 2.98 3.66 4 4 C3.625 5.9375 3.625 5.9375 3 8 C2.01 8.495 2.01 8.495 1 9 C1 7.68 1 6.36 1 5 C0.34 4.67 -0.32 4.34 -1 4 C-0.67 2.68 -0.34 1.36 0 0 Z " fill="#DB5127" transform="translate(248,109)"/>
<path d="M0 0 C0.66 0.33 1.32 0.66 2 1 C0.92319498 2.13125022 -0.16175635 3.25474919 -1.25 4.375 C-1.85328125 5.00148438 -2.4565625 5.62796875 -3.078125 6.2734375 C-4.9700588 7.97310161 -6.68201309 8.98459866 -9 10 C-7.61811547 6.78956118 -6.07578097 4.95063635 -3.375 2.75 C-2.74335938 2.22921875 -2.11171875 1.7084375 -1.4609375 1.171875 C-0.73777344 0.59179688 -0.73777344 0.59179688 0 0 Z " fill="#6F765D" transform="translate(199,100)"/>
<path d="M0 0 C0.66 0.33 1.32 0.66 2 1 C1.88637738 2.4800841 1.75877092 3.95910074 1.625 5.4375 C1.52058594 6.67306641 1.52058594 6.67306641 1.4140625 7.93359375 C1.27742187 8.61550781 1.14078125 9.29742187 1 10 C0.01 10.495 0.01 10.495 -1 11 C-1.14285714 3.57142857 -1.14285714 3.57142857 0 0 Z " fill="#5A6047" transform="translate(179,91)"/>
<path d="M0 0 C0.66 0.33 1.32 0.66 2 1 C2 3 2 3 -0.3125 5.625 C-3 8 -3 8 -6 8 C-4.02 5.36 -2.04 2.72 0 0 Z " fill="#6C7258" transform="translate(189,72)"/>
<path d="M0 0 C0.33 1.32 0.66 2.64 1 4 C-2.63 4.66 -6.26 5.32 -10 6 C-6.68366796 3.51275097 -3.70626844 1.76890085 0 0 Z " fill="#D17F36" transform="translate(234,239)"/>
<path d="M0 0 C0.66 0 1.32 0 2 0 C1.34 4.62 0.68 9.24 0 14 C-2 10 -2 10 -2 8 C-1.34 8 -0.68 8 0 8 C0 5.36 0 2.72 0 0 Z " fill="#D5883D" transform="translate(289,170)"/>
<path d="M0 0 C-0.33 1.32 -0.66 2.64 -1 4 C-2.65 3.67 -4.3 3.34 -6 3 C-6 2.01 -6 1.02 -6 0 C-3 -1 -3 -1 0 0 Z " fill="#DF5420" transform="translate(150,164)"/>
<path d="M0 0 C2.97 0.33 5.94 0.66 9 1 C9 1.66 9 2.32 9 3 C2.25 3.125 2.25 3.125 0 2 C0 1.34 0 0.68 0 0 Z " fill="#F7821B" transform="translate(246,233)"/>
<path d="M0 0 C1.32 0.66 2.64 1.32 4 2 C2.75023244 5.65316671 2.32901247 6.78065836 -1 9 C-1 7.68 -1 6.36 -1 5 C-0.34 5 0.32 5 1 5 C0.67 3.35 0.34 1.7 0 0 Z " fill="#E08438" transform="translate(268,216)"/>
<path d="M0 0 C-1.8125 1.5625 -1.8125 1.5625 -4 3 C-4.99 2.67 -5.98 2.34 -7 2 C-8.66362417 1.65179959 -10.32995171 1.31595508 -12 1 C-12 0.67 -12 0.34 -12 0 C-3.42857143 -1.28571429 -3.42857143 -1.28571429 0 0 Z " fill="#DE6334" transform="translate(157,160)"/>
<path d="M0 0 C1 3 1 3 0.22265625 4.82421875 C-0.8515625 6.54947917 -1.92578125 8.27473958 -3 10 C-3.75 8.375 -3.75 8.375 -4 6 C-2.0625 2.75 -2.0625 2.75 0 0 Z " fill="#6F755E" transform="translate(246,72)"/>
<path d="M0 0 C5.875 3.75 5.875 3.75 7 6 C4.03 5.505 4.03 5.505 1 5 C0.67 3.35 0.34 1.7 0 0 Z " fill="#525942" transform="translate(140,33)"/>
<path d="M0 0 C2.875 -0.125 2.875 -0.125 6 0 C6.66 0.66 7.32 1.32 8 2 C4.37 2.33 0.74 2.66 -3 3 C-2.01 2.67 -1.02 2.34 0 2 C0 1.34 0 0.68 0 0 Z " fill="#D98333" transform="translate(187,261)"/>
<path d="M0 0 C1.17487036 0.75827092 2.33972592 1.53207755 3.5 2.3125 C4.47453125 2.95638672 4.47453125 2.95638672 5.46875 3.61328125 C5.9740625 4.07089844 6.479375 4.52851563 7 5 C7 5.99 7 6.98 7 8 C6.34 8 5.68 8 5 8 C5 7.01 5 6.02 5 5 C3.68 4.67 2.36 4.34 1 4 C0.67 2.68 0.34 1.36 0 0 Z " fill="#646D53" transform="translate(133,27)"/>
<path d="M0 0 C2.31 0.66 4.62 1.32 7 2 C7.33 3.32 7.66 4.64 8 6 C4.08597051 4.73058503 2.20927127 3.48832306 0 0 Z " fill="#D78239" transform="translate(102,236)"/>
<path d="M0 0 C0.66 0.33 1.32 0.66 2 1 C-1.465 3.97 -1.465 3.97 -5 7 C-5.33 6.01 -5.66 5.02 -6 4 C-5.01 4 -4.02 4 -3 4 C-3 3.01 -3 2.02 -3 1 C-2.01 0.67 -1.02 0.34 0 0 Z " fill="#E1883B" transform="translate(265,225)"/>
<path d="M0 0 C0.99 0.33 1.98 0.66 3 1 C3 3.31 3 5.62 3 8 C2.34 8 1.68 8 1 8 C0.67 5.36 0.34 2.72 0 0 Z " fill="#E38D30" transform="translate(260,171)"/>
<path d="M0 0 C3.77545388 1.09068668 6.47043472 1.9083091 9 5 C5.26512223 4.5020163 3.18762365 4.12508244 0 2 C0 1.34 0 0.68 0 0 Z " fill="#6B7356" transform="translate(152,104)"/>
<path d="M0 0 C0.268125 0.61875 0.53625 1.2375 0.8125 1.875 C1.95556848 4.2995233 1.95556848 4.2995233 5 6 C3.02 6 1.04 6 -1 6 C-1.33 5.34 -1.66 4.68 -2 4 C-1.0625 1.875 -1.0625 1.875 0 0 Z " fill="#50573E" transform="translate(210,96)"/>
<path d="M0 0 C1.32 0.33 2.64 0.66 4 1 C3.625 2.9375 3.625 2.9375 3 5 C2.01 5.495 2.01 5.495 1 6 C0.67 4.02 0.34 2.04 0 0 Z " fill="#E78927" transform="translate(256,229)"/>
<path d="M0 0 C0 3.5595477 -0.61579539 4.44549506 -3 7 C-5.1875 7.75 -5.1875 7.75 -7 8 C-7 7.34 -7 6.68 -7 6 C-5.46875 4.4921875 -5.46875 4.4921875 -3.5 2.875 C-2.8503125 2.33617187 -2.200625 1.79734375 -1.53125 1.2421875 C-1.0259375 0.83226562 -0.520625 0.42234375 0 0 Z " fill="#909B81" transform="translate(252,133)"/>
</svg>
